<svg xmlns="http://www.w3.org/2000/svg" xmlns:xlink="http://www.w3.org/1999/xlink" width="40" zoomAndPan="magnify" viewBox="0 0 30 30.000001" height="40" preserveAspectRatio="xMidYMid meet" version="1.2"><defs><clipPath id="a11e254b9c"><path d="M 0.484375 0 L 29.515625 0 L 29.515625 29.03125 L 0.484375 29.03125 Z M 0.484375 0 "/></clipPath><clipPath id="6e2d8ce87e"><path d="M 3.859375 3.375 L 26.359375 3.375 L 26.359375 25.875 L 3.859375 25.875 Z M 3.859375 3.375 "/></clipPath></defs><g id="2c062c9ccc"><g clip-rule="nonzero" clip-path="url(#a11e254b9c)"><path style=" stroke:none;fill-rule:nonzero;fill:#ffffff;fill-opacity:1;" d="M 0.484375 0 L 29.515625 0 L 29.515625 29.03125 L 0.484375 29.03125 Z M 0.484375 0 "/><path style=" stroke:none;fill-rule:nonzero;fill:#0f172a;fill-opacity:1;" d="M 0.484375 0 L 29.515625 0 L 29.515625 29.03125 L 0.484375 29.03125 Z M 0.484375 0 "/></g><g clip-rule="nonzero" clip-path="url(#6e2d8ce87e)"><path style=" stroke:none;fill-rule:nonzero;fill:#ffffff;fill-opacity:1;" d="M 10.449219 3.453125 C 9.253906 3.511719 8.433594 3.703125 7.71875 3.980469 C 6.980469 4.269531 6.355469 4.65625 5.730469 5.28125 C 5.105469 5.910156 4.722656 6.535156 4.4375 7.277344 C 4.160156 7.992188 3.972656 8.8125 3.917969 10.007812 C 3.867188 11.207031 3.855469 11.589844 3.859375 14.648438 C 3.867188 17.703125 3.878906 18.085938 3.9375 19.285156 C 3.996094 20.480469 4.183594 21.296875 4.464844 22.011719 C 4.753906 22.753906 5.140625 23.378906 5.765625 24.003906 C 6.394531 24.628906 7.019531 25.011719 7.761719 25.296875 C 8.476562 25.574219 9.296875 25.761719 10.492188 25.816406 C 11.691406 25.867188 12.078125 25.878906 15.132812 25.875 C 18.183594 25.867188 18.570312 25.855469 19.769531 25.796875 C 20.96875 25.742188 21.78125 25.546875 22.496094 25.269531 C 23.238281 24.980469 23.863281 24.59375 24.488281 23.96875 C 25.109375 23.339844 25.496094 22.714844 25.78125 21.972656 C 26.058594 21.257812 26.246094 20.4375 26.296875 19.242188 C 26.351562 18.042969 26.363281 17.65625 26.355469 14.601562 C 26.351562 11.546875 26.335938 11.164062 26.28125 9.964844 C 26.222656 8.765625 26.035156 7.953125 25.753906 7.238281 C 25.464844 6.496094 25.078125 5.871094 24.453125 5.246094 C 23.824219 4.621094 23.199219 4.238281 22.457031 3.953125 C 21.742188 3.675781 20.921875 3.488281 19.726562 3.433594 C 18.527344 3.382812 18.140625 3.371094 15.085938 3.375 C 12.03125 3.382812 11.648438 3.394531 10.449219 3.453125 M 10.582031 23.792969 C 9.484375 23.742188 8.886719 23.5625 8.492188 23.410156 C 7.964844 23.207031 7.589844 22.960938 7.195312 22.570312 C 6.800781 22.179688 6.558594 21.800781 6.351562 21.277344 C 6.199219 20.878906 6.011719 20.285156 5.960938 19.1875 C 5.90625 18.003906 5.894531 17.648438 5.886719 14.644531 C 5.878906 11.640625 5.890625 11.285156 5.945312 10.097656 C 5.992188 9.003906 6.175781 8.40625 6.328125 8.011719 C 6.527344 7.484375 6.773438 7.109375 7.164062 6.714844 C 7.558594 6.320312 7.933594 6.074219 8.457031 5.871094 C 8.855469 5.714844 9.449219 5.53125 10.546875 5.480469 C 11.730469 5.421875 12.085938 5.414062 15.089844 5.40625 C 18.09375 5.398438 18.449219 5.410156 19.636719 5.460938 C 20.734375 5.511719 21.328125 5.691406 21.726562 5.84375 C 22.25 6.046875 22.625 6.289062 23.019531 6.683594 C 23.417969 7.078125 23.660156 7.449219 23.863281 7.976562 C 24.019531 8.371094 24.203125 8.964844 24.257812 10.0625 C 24.3125 11.25 24.324219 11.605469 24.332031 14.609375 C 24.335938 17.613281 24.324219 17.96875 24.273438 19.152344 C 24.226562 20.25 24.042969 20.847656 23.890625 21.242188 C 23.6875 21.769531 23.445312 22.144531 23.050781 22.539062 C 22.660156 22.933594 22.285156 23.175781 21.757812 23.382812 C 21.363281 23.539062 20.769531 23.722656 19.671875 23.773438 C 18.484375 23.828125 18.128906 23.839844 15.125 23.847656 C 12.121094 23.855469 11.769531 23.84375 10.582031 23.792969 M 19.753906 8.613281 C 19.753906 8.792969 19.785156 8.964844 19.855469 9.128906 C 19.925781 9.292969 20.023438 9.441406 20.148438 9.566406 C 20.277344 9.691406 20.421875 9.789062 20.585938 9.859375 C 20.753906 9.925781 20.925781 9.960938 21.105469 9.960938 C 21.285156 9.960938 21.457031 9.925781 21.621094 9.855469 C 21.785156 9.789062 21.933594 9.691406 22.058594 9.5625 C 22.183594 9.4375 22.28125 9.289062 22.351562 9.125 C 22.417969 8.957031 22.453125 8.785156 22.453125 8.609375 C 22.453125 8.429688 22.417969 8.257812 22.347656 8.089844 C 22.28125 7.925781 22.183594 7.78125 22.054688 7.652344 C 21.929688 7.527344 21.78125 7.429688 21.617188 7.363281 C 21.449219 7.292969 21.277344 7.257812 21.097656 7.261719 C 20.921875 7.261719 20.75 7.296875 20.582031 7.363281 C 20.417969 7.433594 20.273438 7.53125 20.144531 7.65625 C 20.019531 7.785156 19.921875 7.929688 19.855469 8.09375 C 19.785156 8.261719 19.75 8.433594 19.753906 8.613281 M 9.332031 14.636719 C 9.339844 17.828125 11.929688 20.40625 15.121094 20.402344 C 18.308594 20.394531 20.890625 17.804688 20.886719 14.613281 C 20.878906 11.421875 18.289062 8.84375 15.097656 8.847656 C 11.90625 8.855469 9.328125 11.445312 9.332031 14.636719 M 11.359375 14.632812 C 11.359375 14.136719 11.453125 13.65625 11.640625 13.195312 C 11.832031 12.738281 12.101562 12.332031 12.453125 11.976562 C 12.804688 11.625 13.207031 11.355469 13.667969 11.164062 C 14.125 10.972656 14.605469 10.875 15.101562 10.875 C 15.597656 10.875 16.078125 10.96875 16.535156 11.15625 C 16.996094 11.347656 17.402344 11.617188 17.753906 11.96875 C 18.109375 12.320312 18.378906 12.722656 18.570312 13.183594 C 18.761719 13.640625 18.859375 14.121094 18.859375 14.617188 C 18.859375 15.113281 18.765625 15.59375 18.578125 16.054688 C 18.386719 16.511719 18.117188 16.917969 17.765625 17.269531 C 17.414062 17.625 17.011719 17.894531 16.550781 18.085938 C 16.089844 18.277344 15.613281 18.375 15.117188 18.375 C 14.617188 18.375 14.140625 18.28125 13.679688 18.09375 C 13.222656 17.902344 12.816406 17.632812 12.460938 17.28125 C 12.109375 16.929688 11.839844 16.527344 11.648438 16.066406 C 11.457031 15.609375 11.359375 15.128906 11.359375 14.632812 "/></g></g></svg>